<svg width="34" height="34" viewBox="0 0 34 34" fill="none" xmlns="http://www.w3.org/2000/svg">
<path d="M13.4147 23.8266C13.2863 23.8266 13.1569 23.7824 13.0514 23.6925L9.41905 20.5996C9.29375 20.4928 9.22171 20.3368 9.22171 20.172C9.22171 20.0076 9.29407 19.8516 9.41905 19.7448L13.0514 16.6519C13.2872 16.4508 13.6415 16.4793 13.8426 16.7151C14.0434 16.9513 14.0152 17.3056 13.779 17.5064L10.6488 20.172L13.779 22.8377C14.0152 23.0388 14.0434 23.393 13.8426 23.6289C13.7314 23.7595 13.5735 23.8266 13.4147 23.8266Z" fill="#6A7A99"/>
<path d="M20.5853 23.8266C20.4265 23.8266 20.2686 23.7595 20.1577 23.6289C19.9566 23.393 19.9851 23.0388 20.221 22.8377L23.3512 20.172L20.221 17.5064C19.9851 17.3056 19.9566 16.9513 20.1577 16.7151C20.3585 16.4793 20.7131 16.4508 20.9486 16.6519L24.5809 19.7448C24.7062 19.8516 24.7783 20.0076 24.7783 20.172C24.7783 20.3368 24.7062 20.4928 24.5809 20.5996L20.9486 23.6925C20.8431 23.7824 20.7137 23.8266 20.5853 23.8266V23.8266Z" fill="#6A7A99"/>
<path d="M15.7143 26.1464C15.6758 26.1464 15.6369 26.1423 15.5978 26.1342C15.2946 26.0703 15.1004 25.7724 15.1643 25.4692L17.428 14.7211C17.4919 14.4179 17.7895 14.2237 18.093 14.2876C18.3963 14.3515 18.5905 14.649 18.5266 14.9526L16.2628 25.7006C16.207 25.965 15.974 26.1464 15.7143 26.1464V26.1464Z" fill="#6A7A99"/>
<path d="M30.2311 32.0021H3.76887C1.69085 32.0021 0 30.3116 0 28.2332V5.77351C0 3.69549 1.69085 2.00464 3.76887 2.00464H30.2311C32.3091 2.00464 34 3.69549 34 5.77351V28.2332C34 30.3116 32.3091 32.0021 30.2311 32.0021ZM3.76887 3.12728C2.30981 3.12728 1.12264 4.31445 1.12264 5.77351V28.2332C1.12264 29.6923 2.30981 30.8795 3.76887 30.8795H30.2311C31.6902 30.8795 32.8774 29.6923 32.8774 28.2332V5.77351C32.8774 4.31445 31.6902 3.12728 30.2311 3.12728H3.76887Z" fill="#6A7A99"/>
<path d="M33.4387 10.993H0.561321C0.251216 10.993 0 10.7418 0 10.4317C0 10.1219 0.251216 9.87036 0.561321 9.87036H33.4387C33.7488 9.87036 34 10.1219 34 10.4317C34 10.7418 33.7488 10.993 33.4387 10.993Z" fill="#6A7A99"/>
<path d="M9.5907 8.30713C8.61152 8.30713 7.81433 7.50994 7.81433 6.53076C7.81433 5.55127 8.61152 4.75439 9.5907 4.75439C10.5702 4.75439 11.3671 5.55127 11.3671 6.53076C11.3671 7.50994 10.5702 8.30713 9.5907 8.30713ZM9.5907 5.87704C9.23048 5.87704 8.93697 6.17023 8.93697 6.53076C8.93697 6.8913 9.23048 7.18449 9.5907 7.18449C9.95123 7.18449 10.2444 6.8913 10.2444 6.53076C10.2444 6.17023 9.95123 5.87704 9.5907 5.87704Z" fill="#6A7A99"/>
<path d="M4.13284 8.28979C3.15335 8.28979 2.35648 7.49292 2.35648 6.51343C2.35648 5.53394 3.15335 4.73706 4.13284 4.73706C5.11233 4.73706 5.90921 5.53394 5.90921 6.51343C5.90921 7.49292 5.11233 8.28979 4.13284 8.28979ZM4.13284 5.8597C3.77262 5.8597 3.47912 6.15321 3.47912 6.51343C3.47912 6.87396 3.77262 7.16715 4.13284 7.16715C4.49338 7.16715 4.78657 6.87396 4.78657 6.51343C4.78657 6.15321 4.49338 5.8597 4.13284 5.8597Z" fill="#6A7A99"/>
<path d="M15.0485 8.32391C14.0694 8.32391 13.2725 7.52703 13.2725 6.54754C13.2725 5.56836 14.0694 4.77148 15.0485 4.77148C16.028 4.77148 16.8249 5.56836 16.8249 6.54754C16.8249 7.52703 16.028 8.32391 15.0485 8.32391ZM15.0485 5.89381C14.6883 5.89381 14.3951 6.187 14.3951 6.54754C14.3951 6.90807 14.6883 7.20126 15.0485 7.20126C15.4091 7.20126 15.7023 6.90807 15.7023 6.54754C15.7023 6.187 15.4091 5.89381 15.0485 5.89381Z" fill="#6A7A99"/>
</svg>
